
<svg version="1.1" id="Layer_1" xmlns="http://www.w3.org/2000/svg" xmlns:xlink="http://www.w3.org/1999/xlink" x="0px" y="0px"
	 viewBox="0 0 1920 1080" style="enable-background:new 0 0 1920 1080;" xml:space="preserve">
<style type="text/css">
	.st0{fill:none;stroke:#000000;stroke-miterlimit:10;}
	.st1{opacity:0.3;fill:#FFFFFF;stroke:#000000;stroke-miterlimit:10;}
	.st2{opacity:0.3;fill:#C59B6D;stroke:#000000;stroke-miterlimit:10;}
	.st3{opacity:0.3;fill:#FF1D25;stroke:#000000;stroke-miterlimit:10;}
	.st4{opacity:0.2;fill:#FFFFFF;stroke:#000000;stroke-miterlimit:10;}
	.st5{stroke:#000000;stroke-miterlimit:10;}
	.st6{opacity:0.3;fill:#29AAE1;stroke:#000000;stroke-miterlimit:10;}
	.st7{opacity:0.3;fill:#3FA8F4;stroke:#000000;stroke-miterlimit:10;}
	.st8{fill:#006837;stroke:#000000;stroke-miterlimit:10;}
	.st9{opacity:0.3;fill:#BCCBD3;stroke:#000000;stroke-miterlimit:10;}
	.st10{fill:#00FF00;stroke:#000000;stroke-width:0.75;stroke-miterlimit:10;}
	.st11{opacity:0.3;fill:#FFFF00;stroke:#000000;stroke-miterlimit:10;}
</style>
<path class="st0" d="M1504.36,268.83l37.92-37.92l-89.95-89.95l-48.8,45.55h-186.51v-25.2H796.99v25.2H639.04v-25.2h-65.52v178.11
	h346.13v141.13H676v114.26H521.43v126.09l183.15-0.07v43.69h-25.2v68.88h189.85v10.09h233.54v-60.48h58.81l1.67,78.97h25.2
	l10.09,45.36l75.15,33.08v35.83h80.55l54.33-54.33v-78.4v-75.61h-99.14v-52.09l-206.66-0.06l-0.01-58.85l112.57,0.1v-23.53h168.23
	l64.27,65.52l93.45-90.74l-36.96-36.96V268.83H1504.36z M928.81,738.48H821.44v-73.29h107.38V738.48z M1066.88,489.62H966.31v-32.39
	h100.57V489.62z M1066.88,354.97H966.31v-37.5h100.57V354.97z M1389.06,474.28h-279.55V339.62h279.55V474.28z"/>
<rect x="725.77" y="797.74" class="st1" width="12.56" height="35.68"/>
<rect x="703.38" y="809.41" class="st1" width="22.39" height="24"/>
<rect x="679.38" y="809.41" class="st1" width="24" height="24"/>
<rect x="679.36" y="764.55" class="st1" width="25.14" height="32.34"/>
<rect x="738.34" y="665.19" class="st1" width="83.19" height="36.65"/>
<rect x="821.44" y="569.26" class="st1" width="107.38" height="95.93"/>
<rect x="738.34" y="569.26" class="st1" width="83.19" height="95.93"/>
<rect x="928.74" y="665.19" class="st2" width="174.03" height="178.32"/>
<rect x="1389.06" y="413.51" class="st1" width="36.8" height="48.51"/>
<rect x="1389.06" y="387.47" class="st1" width="36.8" height="24.26"/>
<rect x="1445.51" y="392.32" class="st1" width="58.83" height="19.4"/>
<rect x="1445.51" y="372.6" class="st1" width="58.83" height="19.72"/>
<rect x="1445.51" y="274.49" class="st1" width="58.83" height="98.1"/>
<rect x="1389.06" y="372.6" class="st1" width="36.8" height="14.87"/>
<rect x="1389.06" y="353.26" class="st1" width="28.63" height="19.34"/>
<rect x="1401.36" y="275" class="st1" width="12.19" height="57.66"/>
<polygon class="st1" points="1401.34,332.66 1401.34,339.62 1389.06,339.62 1389.06,353.26 1425.85,353.26 1425.85,332.66 "/>
<rect x="966.31" y="275.51" class="st1" width="17.84" height="41.96"/>
<g id="WC">
	<rect x="573.52" y="161.27" class="st3" width="33.1" height="50.49"/>
	<rect x="606.62" y="161.31" class="st3" width="32.47" height="38.37"/>
	<rect x="1048.85" y="294" class="st3" width="18.03" height="23.47"/>
</g>
<rect x="573.52" y="211.76" class="st1" width="33.1" height="25.24"/>
<rect x="628.47" y="284.75" class="st1" width="21.38" height="54.67"/>
<rect x="606.62" y="284.75" class="st1" width="21.85" height="54.67"/>
<rect x="573.52" y="272.34" class="st1" width="33.1" height="67.08"/>
<rect x="1389.06" y="462.02" class="st1" width="36.8" height="22.6"/>
<rect x="1389.06" y="515.44" class="st1" width="21.73" height="16.06"/>
<rect x="1389.06" y="504.08" class="st1" width="36.8" height="11.36"/>
<rect x="1389.06" y="484.62" class="st1" width="19.46" height="19.46"/>
<path class="st1" d="M1309.45,781.22v-65.43h-206.67v67.17h126.07C1248.47,766.79,1279.32,766.98,1309.45,781.22z"/>
<ellipse transform="matrix(0.7071 -0.7071 0.7071 0.7071 -227.5858 1170.9424)" class="st4" cx="1299.66" cy="860.19" rx="71.13" ry="104.94"/>
<rect x="1389.06" y="411.72" class="st5" width="115.18" height="1.79"/>
<g id="Profs">
	<rect x="868.74" y="738.5" class="st6" width="30" height="37.33"/>
	<rect x="898.74" y="738.48" class="st6" width="30" height="37.35"/>
	<rect x="821.44" y="738.5" class="st6" width="47.31" height="37.33"/>
	<rect x="869.23" y="797.74" class="st6" width="59.51" height="45.77"/>
	<rect x="836.25" y="797.74" class="st6" width="32.98" height="35.68"/>
	<rect x="801.53" y="797.74" class="st6" width="34.72" height="35.68"/>
	<rect x="766.04" y="797.74" class="st6" width="35.49" height="35.68"/>
	<rect x="738.34" y="797.74" class="st6" width="27.7" height="35.68"/>
	<rect x="664.5" y="678.5" class="st6" width="40" height="42.35"/>
	<rect x="631.5" y="678.5" class="st6" width="33" height="42.36"/>
	<rect x="596.5" y="678.5" class="st6" width="35" height="42.38"/>
	<rect x="559.5" y="678.5" class="st6" width="37" height="42.39"/>
	<rect x="537.5" y="678.5" class="st6" width="22" height="42.4"/>
	<rect x="521.43" y="678.5" class="st6" width="16.07" height="42.41"/>
	<rect x="672.5" y="594.5" class="st6" width="32" height="51"/>
	<rect x="639.5" y="594.5" class="st6" width="33" height="51"/>
	<rect x="603.5" y="594.5" class="st6" width="36" height="51"/>
	<rect x="569.5" y="594.82" class="st6" width="34" height="50.68"/>
	<rect x="553.5" y="594.82" class="st6" width="16" height="41.74"/>
	<rect x="537.5" y="594.85" class="st6" width="16" height="41.65"/>
	<rect x="521.5" y="594.82" class="st6" width="16" height="50.68"/>
	<rect x="738.01" y="480.56" class="st6" width="30.01" height="51.06"/>
	<rect x="768.01" y="480.56" class="st6" width="30.01" height="51.06"/>
	<rect x="798.02" y="480.56" class="st6" width="31.01" height="51.06"/>
	<rect x="829.03" y="480.56" class="st6" width="30.01" height="51.06"/>
	<rect x="859.03" y="480.56" class="st6" width="31.01" height="51.06"/>
	<rect x="890.04" y="500.96" class="st6" width="29.58" height="30.65"/>
	<rect x="966.31" y="354.97" class="st6" width="20.11" height="36.59"/>
	<rect x="986.42" y="354.97" class="st6" width="20.11" height="36.59"/>
	<rect x="1006.54" y="354.97" class="st6" width="20.11" height="36.59"/>
	<rect x="1026.65" y="354.97" class="st6" width="20.11" height="36.59"/>
	<rect x="1046.77" y="354.97" class="st6" width="20.11" height="36.59"/>
	<rect x="966.31" y="420.65" class="st6" width="20.11" height="36.59"/>
	<rect x="986.42" y="420.65" class="st6" width="20.11" height="36.59"/>
	<rect x="1006.54" y="420.65" class="st6" width="20.11" height="36.59"/>
	<rect x="1026.65" y="420.65" class="st6" width="20.11" height="36.59"/>
	<rect x="1046.77" y="420.65" class="st6" width="20.11" height="36.59"/>
	<rect x="1403.57" y="229.04" class="st6" width="22.14" height="20.17"/>
	<rect x="1458.34" y="235.3" class="st6" width="21.33" height="13.77"/>
	<rect x="1479.67" y="235.3" class="st6" width="24.59" height="13.75"/>
	<path class="st6" d="M1541.8,230.87l-37.59,0.01l0.1,24.06l13.75,0.19l23.71-23.68C1541.78,231.26,1541.78,231.06,1541.8,230.87z"
		/>
	<polygon class="st6" points="1403.73,186.41 1425.72,206 1425.72,229.04 1403.42,229.04 	"/>
	<polygon class="st6" points="1418.24,172.78 1439.01,194.86 1425.72,206 1403.62,186.43 	"/>
	<path class="st6" d="M1452.01,141.24l-33.78,31.54l20.78,22.08l10.42-2.48l2.96-51.09
		C1452.26,141.28,1452.14,141.26,1452.01,141.24z"/>
	<polygon class="st6" points="1480.7,169.33 1499.78,188.42 1477.25,212.21 1457.64,195.41 	"/>
	<path class="st6" d="M1452.67,141.3c-0.07,0-0.15,0-0.22-0.01c-0.02,0-0.04-0.01-0.06-0.01l-2.96,51.09l8.21,3.03l23.06-26.08
		L1452.67,141.3z"/>
	<path class="st6" d="M1541.86,230.54c-0.01-0.02-0.02-0.04-0.02-0.06c0,0,0-0.01,0-0.01c-2.06-2.08-11.57-11.54-11.56-11.56
		c0-0.01-0.93-0.92-0.94-0.94c-0.08-0.14-1.02-0.95-1.1-1.1c-0.04-0.08-1.14-1.08-1.18-1.18l-27.27-27.44l-22.54,23.96l26.97,18.67
		l37.59,0C1541.81,230.76,1541.84,230.65,1541.86,230.54z"/>
	<rect x="1383.21" y="569.26" class="st6" width="38.81" height="32.2"/>
	<rect x="1444.63" y="571.26" class="st6" width="16.13" height="25.73"/>
	<rect x="1460.76" y="571.26" class="st6" width="22.85" height="25.73"/>
	<path class="st6" d="M1540.82,607.79l-36.53-36.54l-20.67,0l0.14,36.46l57.06,0.55C1540.81,608.11,1540.81,607.95,1540.82,607.79z"
		/>
	<rect x="1383.21" y="601.45" class="st6" width="38.81" height="32.2"/>
	<polygon class="st6" points="1415.12,665.65 1435.87,644.58 1422.02,633.49 1383.72,633.49 	"/>
	<path class="st6" d="M1448.08,698.34l-1.35-51.29l-10.86-2.47l-20.75,21.07l32.38,32.98
		C1447.69,698.52,1447.88,698.43,1448.08,698.34z"/>
	<polygon class="st6" points="1478.56,669.19 1505.67,642.87 1483.75,619.92 1455.29,644.03 	"/>
	<path class="st6" d="M1448.76,698.13l29.81-28.94l-23.28-25.16l-8.55,3.02l1.35,51.29C1448.3,698.26,1448.52,698.18,1448.76,698.13
		z"/>
	<path class="st6" d="M1540.81,608.67c0-0.13,0-0.27,0-0.4l-57.06-0.55v12.21l21.92,22.94l35.15-34.13
		C1540.82,608.72,1540.81,608.69,1540.81,608.67z"/>
	<rect x="705" y="480.56" class="st7" width="33.01" height="25.03"/>
	<rect x="676" y="480.56" class="st7" width="29.01" height="51.06"/>
</g>
<g id="trees">
	<rect x="821.53" y="665.19" class="st8" width="107.28" height="73.31"/>
	<rect x="966.31" y="457.23" class="st8" width="100.57" height="32.39"/>
	<rect x="966.31" y="317.47" class="st8" width="100.57" height="37.5"/>
	<rect x="1109.51" y="339.62" class="st8" width="279.55" height="134.66"/>
</g>
<g id="stairs_00000140695758111175546690000016750114081432844464_">
	<g id="stair_6">
		<line class="st0" x1="745" y1="770.5" x2="817" y2="770.5"/>
		<line class="st0" x1="816.5" y1="707" x2="816.5" y2="771"/>
		<line class="st0" x1="745" y1="706.5" x2="817" y2="706.5"/>
		<line class="st0" x1="757" y1="757.5" x2="803" y2="757.5"/>
		<line class="st0" x1="802.5" y1="720" x2="802.5" y2="757"/>
		<line class="st0" x1="757" y1="719.5" x2="803" y2="719.5"/>
		<line class="st0" x1="757.5" y1="757" x2="757.5" y2="771"/>
		<line class="st0" x1="764.5" y1="757" x2="764.5" y2="771"/>
		<line class="st0" x1="772.5" y1="757" x2="772.5" y2="771"/>
		<line class="st0" x1="779.5" y1="757" x2="779.5" y2="771"/>
		<line class="st0" x1="787.5" y1="757" x2="787.5" y2="771"/>
		<line class="st0" x1="794.5" y1="757" x2="794.5" y2="771"/>
		<line class="st0" x1="802.5" y1="757" x2="802.5" y2="771"/>
		<line class="st0" x1="802" y1="770.5" x2="817" y2="770.5"/>
		<line class="st0" x1="802" y1="760.5" x2="817" y2="760.5"/>
		<line class="st0" x1="802" y1="749.5" x2="817" y2="749.5"/>
		<line class="st0" x1="802" y1="738.5" x2="817" y2="738.5"/>
		<line class="st0" x1="802" y1="728.5" x2="817" y2="728.5"/>
		<line class="st0" x1="802" y1="719.5" x2="817" y2="719.5"/>
		<line class="st0" x1="802" y1="706.5" x2="817" y2="706.5"/>
		<line class="st0" x1="816.5" y1="720" x2="816.5" y2="707"/>
		<line class="st0" x1="806.5" y1="720" x2="806.5" y2="707"/>
		<line class="st0" x1="797.5" y1="720" x2="797.5" y2="707"/>
		<line class="st0" x1="787.5" y1="720" x2="787.5" y2="707"/>
		<line class="st0" x1="777.5" y1="720" x2="777.5" y2="707"/>
		<line class="st0" x1="767.5" y1="720" x2="767.5" y2="707"/>
		<line class="st0" x1="757.5" y1="720" x2="757.5" y2="707"/>
	</g>
	<g id="stair_5">
		<line class="st0" x1="1445" y1="571.26" x2="1504.81" y2="571.26"/>
		<line class="st0" x1="1504.31" y1="531.5" x2="1504.31" y2="570.76"/>
		<line class="st0" x1="1445" y1="531.99" x2="1504.81" y2="531.99"/>
		<line class="st0" x1="1454.97" y1="562.42" x2="1491.85" y2="562.42"/>
		<line class="st0" x1="1492.35" y1="540.33" x2="1492.35" y2="562.91"/>
		<line class="st0" x1="1454.97" y1="539.84" x2="1491.85" y2="539.84"/>
		<line class="st0" x1="1454.47" y1="561.93" x2="1454.47" y2="570.76"/>
		<line class="st0" x1="1461.45" y1="561.93" x2="1461.45" y2="570.76"/>
		<line class="st0" x1="1467.43" y1="561.93" x2="1467.43" y2="570.76"/>
		<line class="st0" x1="1473.41" y1="561.93" x2="1473.41" y2="570.76"/>
		<line class="st0" x1="1479.39" y1="561.93" x2="1479.39" y2="570.76"/>
		<line class="st0" x1="1486.37" y1="561.93" x2="1486.37" y2="570.76"/>
		<line class="st0" x1="1492.35" y1="561.93" x2="1492.35" y2="570.76"/>
		<line class="st0" x1="1491.85" y1="571.26" x2="1503.81" y2="571.26"/>
		<line class="st0" x1="1491.85" y1="539.84" x2="1503.81" y2="539.84"/>
		<line class="st0" x1="1491.85" y1="531.99" x2="1503.81" y2="531.99"/>
		<line class="st0" x1="1504.31" y1="540.33" x2="1504.31" y2="531.5"/>
		<line class="st0" x1="1496.34" y1="540.33" x2="1496.34" y2="531.5"/>
		<line class="st0" x1="1487.36" y1="540.33" x2="1487.36" y2="531.5"/>
		<line class="st0" x1="1479.39" y1="540.33" x2="1479.39" y2="531.5"/>
		<line class="st0" x1="1471.42" y1="540.33" x2="1471.42" y2="531.5"/>
		<line class="st0" x1="1463.44" y1="540.33" x2="1463.44" y2="531.5"/>
		<line class="st0" x1="1455.47" y1="540.33" x2="1455.47" y2="531.5"/>
	</g>
	<g id="stair_4">
		<line class="st0" x1="1457.83" y1="274.49" x2="1504.79" y2="274.49"/>
		<line class="st0" x1="1504.3" y1="248.54" x2="1504.3" y2="275"/>
		<line class="st0" x1="1457.83" y1="249.05" x2="1504.79" y2="249.05"/>
		<line class="st0" x1="1465.66" y1="269.4" x2="1494.03" y2="269.4"/>
		<line class="st0" x1="1494.52" y1="254.65" x2="1494.52" y2="268.89"/>
		<line class="st0" x1="1465.66" y1="254.14" x2="1494.03" y2="254.14"/>
		<line class="st0" x1="1465.17" y1="268.89" x2="1465.17" y2="275"/>
		<line class="st0" x1="1471.04" y1="268.89" x2="1471.04" y2="275"/>
		<line class="st0" x1="1475.93" y1="268.89" x2="1475.93" y2="275"/>
		<line class="st0" x1="1479.84" y1="268.89" x2="1479.84" y2="275"/>
		<line class="st0" x1="1484.73" y1="268.89" x2="1484.73" y2="275"/>
		<line class="st0" x1="1490.6" y1="268.89" x2="1490.6" y2="275"/>
		<line class="st0" x1="1494.52" y1="268.89" x2="1494.52" y2="275"/>
		<line class="st0" x1="1494.03" y1="274.49" x2="1503.81" y2="274.49"/>
		<line class="st0" x1="1494.03" y1="254.14" x2="1503.81" y2="254.14"/>
		<line class="st0" x1="1494.03" y1="249.05" x2="1503.81" y2="249.05"/>
		<line class="st0" x1="1504.3" y1="254.65" x2="1504.3" y2="248.54"/>
		<line class="st0" x1="1497.45" y1="254.65" x2="1497.45" y2="248.54"/>
		<line class="st0" x1="1490.6" y1="254.65" x2="1490.6" y2="248.54"/>
		<line class="st0" x1="1484.73" y1="254.65" x2="1484.73" y2="248.54"/>
		<line class="st0" x1="1478.86" y1="254.65" x2="1478.86" y2="248.54"/>
		<line class="st0" x1="1472.01" y1="254.65" x2="1472.01" y2="248.54"/>
		<line class="st0" x1="1466.15" y1="254.65" x2="1466.15" y2="248.54"/>
	</g>
	<g id="stair_3">
		<line class="st0" x1="606.62" y1="237.01" x2="573.5" y2="237.01"/>
		<line class="st0" x1="573.78" y1="272.78" x2="573.78" y2="236.49"/>
		<line class="st0" x1="606.62" y1="272.27" x2="573.5" y2="272.27"/>
		<line class="st0" x1="601.1" y1="244.27" x2="580.68" y2="244.27"/>
		<line class="st0" x1="580.4" y1="264.49" x2="580.4" y2="243.75"/>
		<line class="st0" x1="601.1" y1="265.01" x2="580.68" y2="265.01"/>
		<line class="st0" x1="601.37" y1="244.79" x2="601.37" y2="236.49"/>
		<line class="st0" x1="597.51" y1="244.79" x2="597.51" y2="236.49"/>
		<line class="st0" x1="594.2" y1="244.79" x2="594.2" y2="236.49"/>
		<line class="st0" x1="590.89" y1="244.79" x2="590.89" y2="236.49"/>
		<line class="st0" x1="587.57" y1="244.79" x2="587.57" y2="236.49"/>
		<line class="st0" x1="583.71" y1="244.79" x2="583.71" y2="236.49"/>
		<line class="st0" x1="580.4" y1="244.79" x2="580.4" y2="236.49"/>
		<line class="st0" x1="580.68" y1="237.01" x2="574.05" y2="237.01"/>
		<line class="st0" x1="580.68" y1="265.01" x2="574.05" y2="265.01"/>
		<line class="st0" x1="580.68" y1="272.27" x2="574.05" y2="272.27"/>
		<line class="st0" x1="573.78" y1="264.49" x2="573.78" y2="272.78"/>
		<line class="st0" x1="578.19" y1="264.49" x2="578.19" y2="272.78"/>
		<line class="st0" x1="583.16" y1="264.49" x2="583.16" y2="272.78"/>
		<line class="st0" x1="587.57" y1="264.49" x2="587.57" y2="272.78"/>
		<line class="st0" x1="591.99" y1="264.49" x2="591.99" y2="272.78"/>
		<line class="st0" x1="596.41" y1="264.49" x2="596.41" y2="272.78"/>
		<line class="st0" x1="600.82" y1="264.49" x2="600.82" y2="272.78"/>
	</g>
	<g id="stair_2">
		<line class="st0" x1="993.5" y1="581" x2="993.5" y2="665"/>
		<line class="st0" x1="974.5" y1="581" x2="974.5" y2="665"/>
		<line class="st0" x1="1037.5" y1="581" x2="1037.5" y2="665"/>
		<line class="st0" x1="1056.5" y1="581" x2="1056.5" y2="665"/>
		<line class="st0" x1="994" y1="586.5" x2="1037" y2="586.5"/>
		<line class="st0" x1="994" y1="592.5" x2="1037" y2="592.5"/>
		<line class="st0" x1="994" y1="599.5" x2="1037" y2="599.5"/>
		<line class="st0" x1="994" y1="604.5" x2="1037" y2="604.5"/>
		<line class="st0" x1="994" y1="610.5" x2="1037" y2="610.5"/>
		<line class="st0" x1="994" y1="616.5" x2="1037" y2="616.5"/>
		<line class="st0" x1="994" y1="637.5" x2="1037" y2="637.5"/>
		<line class="st0" x1="994" y1="643.5" x2="1037" y2="643.5"/>
		<line class="st0" x1="994" y1="648.5" x2="1037" y2="648.5"/>
		<line class="st0" x1="994" y1="653.5" x2="1037" y2="653.5"/>
		<line class="st0" x1="994" y1="659.5" x2="1037" y2="659.5"/>
		<line class="st0" x1="994" y1="632.5" x2="1037" y2="632.5"/>
		<line class="st0" x1="1038" y1="633.5" x2="1057" y2="633.5"/>
		<line class="st0" x1="1038" y1="638.5" x2="1057" y2="638.5"/>
		<line class="st0" x1="1038" y1="644.5" x2="1057" y2="644.5"/>
		<line class="st0" x1="1038" y1="649.5" x2="1057" y2="649.5"/>
		<line class="st0" x1="1038" y1="655.5" x2="1057" y2="655.5"/>
		<line class="st0" x1="1038" y1="628.5" x2="1057" y2="628.5"/>
		<line class="st0" x1="975" y1="633.5" x2="994" y2="633.5"/>
		<line class="st0" x1="975" y1="638.5" x2="994" y2="638.5"/>
		<line class="st0" x1="975" y1="644.5" x2="994" y2="644.5"/>
		<line class="st0" x1="975" y1="649.5" x2="994" y2="649.5"/>
		<line class="st0" x1="975" y1="655.5" x2="994" y2="655.5"/>
		<line class="st0" x1="975" y1="628.5" x2="994" y2="628.5"/>
		<line class="st0" x1="1038" y1="597.5" x2="1057" y2="597.5"/>
		<line class="st0" x1="1038" y1="603.5" x2="1057" y2="603.5"/>
		<line class="st0" x1="1038" y1="609.5" x2="1057" y2="609.5"/>
		<line class="st0" x1="1038" y1="613.5" x2="1057" y2="613.5"/>
		<line class="st0" x1="1038" y1="619.5" x2="1057" y2="619.5"/>
		<line class="st0" x1="1038" y1="592.5" x2="1057" y2="592.5"/>
		<line class="st0" x1="975" y1="597.5" x2="994" y2="597.5"/>
		<line class="st0" x1="975" y1="603.5" x2="994" y2="603.5"/>
		<line class="st0" x1="975" y1="609.5" x2="994" y2="609.5"/>
		<line class="st0" x1="975" y1="613.5" x2="994" y2="613.5"/>
		<line class="st0" x1="975" y1="619.5" x2="994" y2="619.5"/>
		<line class="st0" x1="975" y1="592.5" x2="994" y2="592.5"/>
	</g>
	<g id="stair_1">
		<line class="st0" x1="999.14" y1="275" x2="999.14" y2="312"/>
		<line class="st0" x1="984.15" y1="275" x2="984.15" y2="317"/>
		<line class="st0" x1="1033.86" y1="275" x2="1033.86" y2="313"/>
		<line class="st0" x1="1048.85" y1="275" x2="1048.85" y2="317"/>
		<line class="st0" x1="999.54" y1="276.5" x2="1033.46" y2="276.5"/>
		<line class="st0" x1="999.54" y1="283.5" x2="1033.46" y2="283.5"/>
		<line class="st0" x1="999.54" y1="288.5" x2="1033.46" y2="288.5"/>
		<line class="st0" x1="999.54" y1="305.5" x2="1033.46" y2="305.5"/>
		<line class="st0" x1="999.54" y1="310.5" x2="1033.46" y2="310.5"/>
		<line class="st0" x1="999.54" y1="299.5" x2="1033.46" y2="299.5"/>
		<line class="st0" x1="1033.46" y1="297.5" x2="1048.46" y2="297.5"/>
		<line class="st0" x1="1033.46" y1="303.5" x2="1048.46" y2="303.5"/>
		<line class="st0" x1="1033.46" y1="308.5" x2="1048.46" y2="308.5"/>
		<line class="st0" x1="984.54" y1="297.5" x2="999.54" y2="297.5"/>
		<line class="st0" x1="984.54" y1="303.5" x2="999.54" y2="303.5"/>
		<line class="st0" x1="984.54" y1="308.5" x2="999.54" y2="308.5"/>
		<line class="st0" x1="1033.46" y1="284.5" x2="1048.46" y2="284.5"/>
		<line class="st0" x1="1033.46" y1="290.5" x2="1048.46" y2="290.5"/>
		<line class="st0" x1="1033.46" y1="279.5" x2="1048.46" y2="279.5"/>
		<line class="st0" x1="984.54" y1="279.5" x2="999.54" y2="279.5"/>
		<line class="st0" x1="984.54" y1="285.5" x2="999.54" y2="285.5"/>
		<line class="st0" x1="984.54" y1="290.5" x2="999.54" y2="290.5"/>
	</g>
</g>
<g id="classes">
	<rect x="836.77" y="272.34" class="st9" width="82.88" height="67.08"/>
	<rect x="760.49" y="272.34" class="st9" width="76.28" height="67.08"/>
	<rect x="701.6" y="272.34" class="st9" width="58.89" height="67.08"/>
	<rect x="649.85" y="272.34" class="st9" width="51.74" height="67.08"/>
	<rect x="797" y="161.31" class="st9" width="122.65" height="75.69"/>
	<rect x="696.15" y="186.51" class="st9" width="55.28" height="50.49"/>
	<rect x="639.09" y="186.51" class="st9" width="57.06" height="50.49"/>
	<rect x="751.43" y="186.51" class="st9" width="45.57" height="50.49"/>
	<rect x="1289.85" y="275" class="st9" width="70.87" height="64.62"/>
	<rect x="1360.72" y="275" class="st9" width="40.62" height="64.62"/>
	<rect x="1246.11" y="275" class="st9" width="43.74" height="64.62"/>
	<rect x="1201.68" y="275" class="st9" width="44.43" height="64.62"/>
	<rect x="1109.51" y="275" class="st9" width="92.18" height="64.62"/>
	<rect x="1102.7" y="161.31" class="st9" width="114.32" height="87.9"/>
	<rect x="1217.02" y="186.51" class="st9" width="36.49" height="62.7"/>
	<rect x="1253.51" y="186.51" class="st9" width="38.72" height="62.7"/>
	<rect x="1292.23" y="186.51" class="st9" width="59.23" height="62.7"/>
	<rect x="1351.41" y="186.51" class="st9" width="52.16" height="62.7"/>
	<rect x="1351.98" y="474.87" class="st9" width="37.07" height="40.56"/>
	<rect x="1351.98" y="515.44" class="st9" width="37.07" height="16.06"/>
	<rect x="1244.02" y="569.26" class="st9" width="28.67" height="64.39"/>
	<rect x="1215.35" y="569.26" class="st9" width="28.67" height="64.39"/>
	<rect x="1327.94" y="569.26" class="st9" width="55.26" height="64.39"/>
	<rect x="1272.68" y="569.26" class="st9" width="55.26" height="64.39"/>
	<rect x="1102.78" y="569.26" class="st9" width="56.28" height="87.66"/>
	<rect x="1159.07" y="569.26" class="st9" width="56.28" height="87.73"/>
	<rect x="1109.5" y="474.28" class="st9" width="36.07" height="57.22"/>
	<rect x="1145.57" y="474.28" class="st9" width="35.07" height="57.22"/>
	<rect x="1180.64" y="474.28" class="st9" width="29.06" height="57.22"/>
	<rect x="1209.7" y="474.28" class="st9" width="28.06" height="57.22"/>
	<rect x="1237.75" y="474.28" class="st9" width="57.11" height="57.22"/>
	<rect x="1294.87" y="474.28" class="st9" width="57.11" height="57.22"/>
	<rect x="1445.51" y="494.45" class="st9" width="58.83" height="37.4"/>
	<rect x="1445.51" y="457.3" class="st9" width="58.83" height="37.15"/>
	<rect x="1445.51" y="413.51" class="st9" width="58.83" height="43.79"/>
</g>
<g id="entrance">
	<rect x="1502.44" y="269.51" class="st10" width="9.87" height="4.87"/>
	<rect x="1002.72" y="836.65" class="st10" width="37.41" height="18.47"/>
	<rect x="696.48" y="734.45" class="st10" width="9.87" height="15.53"/>
	<rect x="564.88" y="248.18" class="st10" width="9.87" height="11.89"/>
	<rect x="1502.34" y="545.88" class="st10" width="9.87" height="10.5"/>
	<rect x="996.17" y="148.05" class="st10" width="40.66" height="20.07"/>
</g>
<g id="elevator">
	<rect x="890.04" y="480.58" class="st11" width="29.58" height="20.39"/>
	<rect x="1048.85" y="275.49" class="st11" width="18.03" height="18.51"/>
</g>
</svg>
