<svg id="Layer_1" data-name="Layer 1" xmlns="http://www.w3.org/2000/svg" viewBox="0 0 1022.05 836.49">
  <defs>
    <style>
      .cls-1 {
        fill: none;
      }

      .cls-1, .cls-2, .cls-3, .cls-4, .cls-5, .cls-6, .cls-7, .cls-8, .cls-9, .cls-10, .cls-11, .cls-12 {
        stroke: #000;
        stroke-miterlimit: 10;
      }

      .cls-3 {
        fill: lime;
        stroke-width: .75px;
      }

      .cls-4 {
        fill: #006837;
      }

      .cls-5 {
        fill: #29aae1;
      }

      .cls-5, .cls-6, .cls-7, .cls-8, .cls-10, .cls-11, .cls-12 {
        opacity: .3;
      }

      .cls-6 {
        fill: #3fa8f4;
      }

      .cls-7 {
        fill: #bccbd3;
      }

      .cls-8 {
        fill: #c59b6d;
      }

      .cls-9 {
        opacity: .2;
      }

      .cls-9, .cls-10 {
        fill: #fff;
      }

      .cls-11 {
        fill: #ff1d25;
      }

      .cls-12 {
        fill: #ff0;
      }
    </style>
  </defs>
  <path class="cls-1" d="m983.42,128.57l37.92-37.92L931.4.7l-48.8,45.55h-186.51v-25.2h-420.03v25.2H118.11v-25.2H52.59v178.11h346.13v141.13h-243.65v114.26H.5v126.09l183.15-.07v43.69h-25.2v68.88h189.85v10.09h233.54v-60.48h58.81l1.67,78.97h25.2l10.09,45.36,75.15,33.08v35.83h80.55l54.33-54.33v-154.01h-99.14v-52.09l-206.66-.06v-58.85s112.56.1,112.56.1v-23.53h168.23l64.27,65.52,93.45-90.74-36.96-36.96V128.57h.02Zm-575.54,469.65h-107.38v-73.29h107.38v73.29Zm138.07-248.86h-100.57v-32.39h100.57v32.39Zm0-134.66h-100.57v-37.5h100.57v37.5Zm322.17,119.31h-279.55v-134.66h279.55v134.66Z"/>
  <rect class="cls-10" x="204.84" y="657.47" width="12.56" height="35.68"/>
  <rect class="cls-10" x="182.45" y="669.15" width="22.39" height="24"/>
  <rect class="cls-10" x="158.45" y="669.15" width="24" height="24"/>
  <rect class="cls-10" x="158.43" y="624.29" width="25.14" height="32.34"/>
  <rect class="cls-10" x="217.41" y="524.92" width="83.19" height="36.65"/>
  <rect class="cls-10" x="300.5" y="428.99" width="107.38" height="95.93"/>
  <rect class="cls-10" x="217.41" y="428.99" width="83.19" height="95.93"/>
  <rect class="cls-8" x="407.81" y="524.92" width="174.03" height="178.32"/>
  <rect class="cls-10" x="868.12" y="273.25" width="36.8" height="48.51"/>
  <rect class="cls-10" x="868.12" y="247.2" width="36.8" height="24.26"/>
  <rect class="cls-10" x="924.58" y="252.06" width="58.83" height="19.4"/>
  <rect class="cls-10" x="924.58" y="232.33" width="58.83" height="19.72"/>
  <rect class="cls-10" x="924.58" y="134.23" width="58.83" height="98.1"/>
  <rect class="cls-10" x="868.12" y="232.33" width="36.8" height="14.87"/>
  <rect class="cls-10" x="868.12" y="212.99" width="28.63" height="19.34"/>
  <rect class="cls-10" x="880.43" y="134.74" width="12.19" height="57.66"/>
  <polygon class="cls-10" points="880.41 192.4 880.41 199.36 868.12 199.36 868.12 212.99 904.92 212.99 904.92 192.4 880.41 192.4"/>
  <rect class="cls-10" x="445.38" y="135.25" width="17.84" height="41.96"/>
  <g id="WC">
    <rect class="cls-11" x="52.59" y="21" width="33.1" height="50.49"/>
    <rect class="cls-11" x="85.69" y="21.05" width="32.47" height="38.37"/>
    <rect class="cls-11" x="527.92" y="153.74" width="18.03" height="23.47"/>
  </g>
  <rect class="cls-10" x="52.59" y="71.49" width="33.1" height="25.24"/>
  <rect class="cls-10" x="107.54" y="144.49" width="21.38" height="54.67"/>
  <rect class="cls-10" x="85.69" y="144.49" width="21.85" height="54.67"/>
  <rect class="cls-10" x="52.59" y="132.07" width="33.1" height="67.08"/>
  <rect class="cls-10" x="868.12" y="321.76" width="36.8" height="22.6"/>
  <rect class="cls-10" x="868.12" y="375.17" width="21.73" height="16.06"/>
  <rect class="cls-10" x="868.12" y="363.82" width="36.8" height="11.36"/>
  <rect class="cls-10" x="868.12" y="344.35" width="19.46" height="19.46"/>
  <path class="cls-10" d="m788.52,640.96v-65.43h-206.67v67.17h126.07c19.62-16.17,50.47-15.98,80.6-1.74Z"/>
  <ellipse class="cls-9" cx="778.73" cy="719.93" rx="71.13" ry="104.94" transform="translate(-280.98 761.51) rotate(-45)"/>
  <rect class="cls-2" x="868.12" y="271.46" width="115.18" height="1.79"/>
  <g id="Profs">
    <rect class="cls-5" x="347.81" y="598.24" width="30" height="37.33"/>
    <rect class="cls-5" x="377.81" y="598.22" width="30" height="37.35"/>
    <rect class="cls-5" x="300.5" y="598.24" width="47.31" height="37.33"/>
    <rect class="cls-5" x="348.3" y="657.47" width="59.51" height="45.77"/>
    <rect class="cls-5" x="315.32" y="657.47" width="32.98" height="35.68"/>
    <rect class="cls-5" x="280.6" y="657.47" width="34.72" height="35.68"/>
    <rect class="cls-5" x="245.11" y="657.47" width="35.49" height="35.68"/>
    <rect class="cls-5" x="217.41" y="657.47" width="27.7" height="35.68"/>
    <rect class="cls-5" x="143.57" y="538.24" width="40" height="42.35"/>
    <rect class="cls-5" x="110.57" y="538.24" width="33" height="42.36"/>
    <rect class="cls-5" x="75.57" y="538.24" width="35" height="42.38"/>
    <rect class="cls-5" x="38.57" y="538.24" width="37" height="42.39"/>
    <rect class="cls-5" x="16.57" y="538.24" width="22" height="42.4"/>
    <rect class="cls-5" x=".5" y="538.24" width="16.07" height="42.41"/>
    <rect class="cls-5" x="151.57" y="454.24" width="32" height="51"/>
    <rect class="cls-5" x="118.57" y="454.24" width="33" height="51"/>
    <rect class="cls-5" x="82.57" y="454.24" width="36" height="51"/>
    <rect class="cls-5" x="48.57" y="454.56" width="34" height="50.68"/>
    <rect class="cls-5" x="32.57" y="454.56" width="16" height="41.74"/>
    <rect class="cls-5" x="16.57" y="454.59" width="16" height="41.65"/>
    <rect class="cls-5" x=".57" y="454.55" width="16" height="50.68"/>
    <rect class="cls-5" x="217.08" y="340.29" width="30.01" height="51.06"/>
    <rect class="cls-5" x="247.08" y="340.29" width="30.01" height="51.06"/>
    <rect class="cls-5" x="277.09" y="340.29" width="31.01" height="51.06"/>
    <rect class="cls-5" x="308.09" y="340.29" width="30.01" height="51.06"/>
    <rect class="cls-5" x="338.1" y="340.29" width="31.01" height="51.06"/>
    <rect class="cls-5" x="369.11" y="360.7" width="29.58" height="30.65"/>
    <rect class="cls-5" x="445.38" y="214.7" width="20.11" height="36.59"/>
    <rect class="cls-5" x="465.49" y="214.7" width="20.11" height="36.59"/>
    <rect class="cls-5" x="485.61" y="214.7" width="20.11" height="36.59"/>
    <rect class="cls-5" x="505.72" y="214.7" width="20.11" height="36.59"/>
    <rect class="cls-5" x="525.84" y="214.7" width="20.11" height="36.59"/>
    <rect class="cls-5" x="445.38" y="280.38" width="20.11" height="36.59"/>
    <rect class="cls-5" x="465.49" y="280.38" width="20.11" height="36.59"/>
    <rect class="cls-5" x="485.61" y="280.38" width="20.11" height="36.59"/>
    <rect class="cls-5" x="505.72" y="280.38" width="20.11" height="36.59"/>
    <rect class="cls-5" x="525.84" y="280.38" width="20.11" height="36.59"/>
    <rect class="cls-5" x="882.64" y="88.78" width="22.14" height="20.17"/>
    <rect class="cls-5" x="937.41" y="95.03" width="21.33" height="13.77"/>
    <rect class="cls-5" x="958.74" y="95.03" width="24.59" height="13.75"/>
    <path class="cls-5" d="m1020.87,90.61h-37.59s.1,24.06.1,24.06l13.75.19,23.71-23.68c0-.19,0-.39.02-.58Z"/>
    <polygon class="cls-5" points="882.8 46.15 904.79 65.74 904.79 88.78 882.48 88.78 882.8 46.15"/>
    <polygon class="cls-5" points="897.3 32.52 918.08 54.6 904.79 65.74 882.69 46.16 897.3 32.52"/>
    <path class="cls-5" d="m931.08.98l-33.78,31.54,20.78,22.08,10.42-2.48,2.96-51.09c-.13,0-.25-.03-.38-.05Z"/>
    <polygon class="cls-5" points="959.77 29.07 978.85 48.15 956.31 71.94 936.71 55.15 959.77 29.07"/>
    <path class="cls-5" d="m931.74,1.04c-.07,0-.15,0-.22,0-.02,0-.04,0-.06,0l-2.96,51.09,8.21,3.03,23.06-26.08-28.03-28.03Z"/>
    <path class="cls-5" d="m1020.93,90.27s-.02-.04-.02-.06c0,0,0,0,0-.01-2.06-2.08-11.57-11.54-11.56-11.56,0-.01-.93-.92-.94-.94-.08-.14-1.02-.95-1.1-1.1-.04-.08-1.14-1.08-1.18-1.18l-27.27-27.44-22.54,23.96,26.97,18.67h37.59c.01-.12.04-.23.06-.34Z"/>
    <rect class="cls-5" x="862.28" y="428.99" width="38.81" height="32.2"/>
    <rect class="cls-5" x="923.69" y="430.99" width="16.13" height="25.73"/>
    <rect class="cls-5" x="939.82" y="430.99" width="22.85" height="25.73"/>
    <path class="cls-5" d="m1019.89,467.53l-36.53-36.54h-20.67s.14,36.46.14,36.46l57.06.55c0-.16,0-.32,0-.47Z"/>
    <rect class="cls-5" x="862.28" y="461.19" width="38.81" height="32.2"/>
    <polygon class="cls-5" points="894.19 525.38 914.94 504.31 901.09 493.22 862.79 493.22 894.19 525.38"/>
    <path class="cls-5" d="m927.15,558.08l-1.35-51.29-10.86-2.47-20.75,21.07,32.38,32.98c.18-.11.38-.2.58-.28Z"/>
    <polygon class="cls-5" points="957.63 528.92 984.74 502.6 962.82 479.66 934.35 503.77 957.63 528.92"/>
    <path class="cls-5" d="m927.82,557.86l29.81-28.94-23.28-25.16-8.55,3.02,1.35,51.29c.21-.09.44-.16.67-.22Z"/>
    <path class="cls-5" d="m1019.88,468.41c0-.13,0-.27,0-.4l-57.06-.55v12.21l21.92,22.94,35.15-34.13s0-.05,0-.07Z"/>
    <rect class="cls-6" x="184.07" y="340.29" width="33.01" height="25.03"/>
    <rect class="cls-6" x="155.07" y="340.29" width="29.01" height="51.06"/>
  </g>
  <g id="trees">
    <rect class="cls-4" x="300.6" y="524.92" width="107.28" height="73.31"/>
    <rect class="cls-4" x="445.38" y="316.97" width="100.57" height="32.39"/>
    <rect class="cls-4" x="445.38" y="177.21" width="100.57" height="37.5"/>
    <rect class="cls-4" x="588.57" y="199.36" width="279.55" height="134.66"/>
  </g>
  <g id="stairs">
    <g id="stair_6" data-name="stair 6">
      <line class="cls-1" x1="224.07" y1="630.24" x2="296.07" y2="630.24"/>
      <line class="cls-1" x1="295.57" y1="566.74" x2="295.57" y2="630.74"/>
      <line class="cls-1" x1="224.07" y1="566.24" x2="296.07" y2="566.24"/>
      <line class="cls-1" x1="236.07" y1="617.24" x2="282.07" y2="617.24"/>
      <line class="cls-1" x1="281.57" y1="579.74" x2="281.57" y2="616.74"/>
      <line class="cls-1" x1="236.07" y1="579.24" x2="282.07" y2="579.24"/>
      <line class="cls-1" x1="236.57" y1="616.74" x2="236.57" y2="630.74"/>
      <line class="cls-1" x1="243.57" y1="616.74" x2="243.57" y2="630.74"/>
      <line class="cls-1" x1="251.57" y1="616.74" x2="251.57" y2="630.74"/>
      <line class="cls-1" x1="258.57" y1="616.74" x2="258.57" y2="630.74"/>
      <line class="cls-1" x1="266.57" y1="616.74" x2="266.57" y2="630.74"/>
      <line class="cls-1" x1="273.57" y1="616.74" x2="273.57" y2="630.74"/>
      <line class="cls-1" x1="281.57" y1="616.74" x2="281.57" y2="630.74"/>
      <line class="cls-1" x1="281.07" y1="630.24" x2="296.07" y2="630.24"/>
      <line class="cls-1" x1="281.07" y1="620.24" x2="296.07" y2="620.24"/>
      <line class="cls-1" x1="281.07" y1="609.24" x2="296.07" y2="609.24"/>
      <line class="cls-1" x1="281.07" y1="598.24" x2="296.07" y2="598.24"/>
      <line class="cls-1" x1="281.07" y1="588.24" x2="296.07" y2="588.24"/>
      <line class="cls-1" x1="281.07" y1="579.24" x2="296.07" y2="579.24"/>
      <line class="cls-1" x1="281.07" y1="566.24" x2="296.07" y2="566.24"/>
      <line class="cls-1" x1="295.57" y1="579.74" x2="295.57" y2="566.74"/>
      <line class="cls-1" x1="285.57" y1="579.74" x2="285.57" y2="566.74"/>
      <line class="cls-1" x1="276.57" y1="579.74" x2="276.57" y2="566.74"/>
      <line class="cls-1" x1="266.57" y1="579.74" x2="266.57" y2="566.74"/>
      <line class="cls-1" x1="256.57" y1="579.74" x2="256.57" y2="566.74"/>
      <line class="cls-1" x1="246.57" y1="579.74" x2="246.57" y2="566.74"/>
      <line class="cls-1" x1="236.57" y1="579.74" x2="236.57" y2="566.74"/>
    </g>
    <g id="stair_5" data-name="stair 5">
      <line class="cls-1" x1="924.07" y1="430.99" x2="983.88" y2="430.99"/>
      <line class="cls-1" x1="983.38" y1="391.24" x2="983.38" y2="430.5"/>
      <line class="cls-1" x1="924.07" y1="391.73" x2="983.88" y2="391.73"/>
      <line class="cls-1" x1="934.04" y1="422.16" x2="970.92" y2="422.16"/>
      <line class="cls-1" x1="971.42" y1="400.07" x2="971.42" y2="422.65"/>
      <line class="cls-1" x1="934.04" y1="399.58" x2="970.92" y2="399.58"/>
      <line class="cls-1" x1="933.54" y1="421.67" x2="933.54" y2="430.5"/>
      <line class="cls-1" x1="940.52" y1="421.67" x2="940.52" y2="430.5"/>
      <line class="cls-1" x1="946.5" y1="421.67" x2="946.5" y2="430.5"/>
      <line class="cls-1" x1="952.48" y1="421.67" x2="952.48" y2="430.5"/>
      <line class="cls-1" x1="958.46" y1="421.67" x2="958.46" y2="430.5"/>
      <line class="cls-1" x1="965.44" y1="421.67" x2="965.44" y2="430.5"/>
      <line class="cls-1" x1="971.42" y1="421.67" x2="971.42" y2="430.5"/>
      <line class="cls-1" x1="970.92" y1="430.99" x2="982.88" y2="430.99"/>
      <line class="cls-1" x1="970.92" y1="399.58" x2="982.88" y2="399.58"/>
      <line class="cls-1" x1="970.92" y1="391.73" x2="982.88" y2="391.73"/>
      <line class="cls-1" x1="983.38" y1="400.07" x2="983.38" y2="391.24"/>
      <line class="cls-1" x1="975.4" y1="400.07" x2="975.4" y2="391.24"/>
      <line class="cls-1" x1="966.43" y1="400.07" x2="966.43" y2="391.24"/>
      <line class="cls-1" x1="958.46" y1="400.07" x2="958.46" y2="391.24"/>
      <line class="cls-1" x1="950.48" y1="400.07" x2="950.48" y2="391.24"/>
      <line class="cls-1" x1="942.51" y1="400.07" x2="942.51" y2="391.24"/>
      <line class="cls-1" x1="934.53" y1="400.07" x2="934.53" y2="391.24"/>
    </g>
    <g id="stair_4" data-name="stair 4">
      <line class="cls-1" x1="936.9" y1="134.23" x2="983.86" y2="134.23"/>
      <line class="cls-1" x1="983.37" y1="108.28" x2="983.37" y2="134.74"/>
      <line class="cls-1" x1="936.9" y1="108.79" x2="983.86" y2="108.79"/>
      <line class="cls-1" x1="944.72" y1="129.14" x2="973.09" y2="129.14"/>
      <line class="cls-1" x1="973.58" y1="114.38" x2="973.58" y2="128.63"/>
      <line class="cls-1" x1="944.72" y1="113.88" x2="973.09" y2="113.88"/>
      <line class="cls-1" x1="944.24" y1="128.63" x2="944.24" y2="134.74"/>
      <line class="cls-1" x1="950.1" y1="128.63" x2="950.1" y2="134.74"/>
      <line class="cls-1" x1="955" y1="128.63" x2="955" y2="134.74"/>
      <line class="cls-1" x1="958.91" y1="128.63" x2="958.91" y2="134.74"/>
      <line class="cls-1" x1="963.8" y1="128.63" x2="963.8" y2="134.74"/>
      <line class="cls-1" x1="969.67" y1="128.63" x2="969.67" y2="134.74"/>
      <line class="cls-1" x1="973.58" y1="128.63" x2="973.58" y2="134.74"/>
      <line class="cls-1" x1="973.09" y1="134.23" x2="982.88" y2="134.23"/>
      <line class="cls-1" x1="973.09" y1="113.88" x2="982.88" y2="113.88"/>
      <line class="cls-1" x1="973.09" y1="108.79" x2="982.88" y2="108.79"/>
      <line class="cls-1" x1="983.37" y1="114.38" x2="983.37" y2="108.28"/>
      <line class="cls-1" x1="976.52" y1="114.38" x2="976.52" y2="108.28"/>
      <line class="cls-1" x1="969.67" y1="114.38" x2="969.67" y2="108.28"/>
      <line class="cls-1" x1="963.8" y1="114.38" x2="963.8" y2="108.28"/>
      <line class="cls-1" x1="957.93" y1="114.38" x2="957.93" y2="108.28"/>
      <line class="cls-1" x1="951.08" y1="114.38" x2="951.08" y2="108.28"/>
      <line class="cls-1" x1="945.21" y1="114.38" x2="945.21" y2="108.28"/>
    </g>
    <g id="stair_3" data-name="stair 3">
      <line class="cls-1" x1="85.69" y1="96.75" x2="52.57" y2="96.75"/>
      <line class="cls-1" x1="52.84" y1="132.52" x2="52.84" y2="96.23"/>
      <line class="cls-1" x1="85.69" y1="132" x2="52.57" y2="132"/>
      <line class="cls-1" x1="80.17" y1="104.01" x2="59.74" y2="104.01"/>
      <line class="cls-1" x1="59.47" y1="124.23" x2="59.47" y2="103.49"/>
      <line class="cls-1" x1="80.17" y1="124.74" x2="59.74" y2="124.74"/>
      <line class="cls-1" x1="80.44" y1="104.53" x2="80.44" y2="96.23"/>
      <line class="cls-1" x1="76.58" y1="104.53" x2="76.58" y2="96.23"/>
      <line class="cls-1" x1="73.27" y1="104.53" x2="73.27" y2="96.23"/>
      <line class="cls-1" x1="69.95" y1="104.53" x2="69.95" y2="96.23"/>
      <line class="cls-1" x1="66.64" y1="104.53" x2="66.64" y2="96.23"/>
      <line class="cls-1" x1="62.78" y1="104.53" x2="62.78" y2="96.23"/>
      <line class="cls-1" x1="59.47" y1="104.53" x2="59.47" y2="96.23"/>
      <line class="cls-1" x1="59.74" y1="96.75" x2="53.12" y2="96.75"/>
      <line class="cls-1" x1="59.74" y1="124.74" x2="53.12" y2="124.74"/>
      <line class="cls-1" x1="59.74" y1="132" x2="53.12" y2="132"/>
      <line class="cls-1" x1="52.84" y1="124.23" x2="52.84" y2="132.52"/>
      <line class="cls-1" x1="57.26" y1="124.23" x2="57.26" y2="132.52"/>
      <line class="cls-1" x1="62.23" y1="124.23" x2="62.23" y2="132.52"/>
      <line class="cls-1" x1="66.64" y1="124.23" x2="66.64" y2="132.52"/>
      <line class="cls-1" x1="71.06" y1="124.23" x2="71.06" y2="132.52"/>
      <line class="cls-1" x1="75.47" y1="124.23" x2="75.47" y2="132.52"/>
      <line class="cls-1" x1="79.89" y1="124.23" x2="79.89" y2="132.52"/>
    </g>
    <g id="stair_2" data-name="stair 2">
      <line class="cls-1" x1="472.57" y1="440.74" x2="472.57" y2="524.74"/>
      <line class="cls-1" x1="453.57" y1="440.74" x2="453.57" y2="524.74"/>
      <line class="cls-1" x1="516.57" y1="440.74" x2="516.57" y2="524.74"/>
      <line class="cls-1" x1="535.57" y1="440.74" x2="535.57" y2="524.74"/>
      <line class="cls-1" x1="473.07" y1="446.24" x2="516.07" y2="446.24"/>
      <line class="cls-1" x1="473.07" y1="452.24" x2="516.07" y2="452.24"/>
      <line class="cls-1" x1="473.07" y1="459.24" x2="516.07" y2="459.24"/>
      <line class="cls-1" x1="473.07" y1="464.24" x2="516.07" y2="464.24"/>
      <line class="cls-1" x1="473.07" y1="470.24" x2="516.07" y2="470.24"/>
      <line class="cls-1" x1="473.07" y1="476.24" x2="516.07" y2="476.24"/>
      <line class="cls-1" x1="473.07" y1="497.24" x2="516.07" y2="497.24"/>
      <line class="cls-1" x1="473.07" y1="503.24" x2="516.07" y2="503.24"/>
      <line class="cls-1" x1="473.07" y1="508.24" x2="516.07" y2="508.24"/>
      <line class="cls-1" x1="473.07" y1="513.24" x2="516.07" y2="513.24"/>
      <line class="cls-1" x1="473.07" y1="519.24" x2="516.07" y2="519.24"/>
      <line class="cls-1" x1="473.07" y1="492.24" x2="516.07" y2="492.24"/>
      <line class="cls-1" x1="517.07" y1="493.24" x2="536.07" y2="493.24"/>
      <line class="cls-1" x1="517.07" y1="498.24" x2="536.07" y2="498.24"/>
      <line class="cls-1" x1="517.07" y1="504.24" x2="536.07" y2="504.24"/>
      <line class="cls-1" x1="517.07" y1="509.24" x2="536.07" y2="509.24"/>
      <line class="cls-1" x1="517.07" y1="515.24" x2="536.07" y2="515.24"/>
      <line class="cls-1" x1="517.07" y1="488.24" x2="536.07" y2="488.24"/>
      <line class="cls-1" x1="454.07" y1="493.24" x2="473.07" y2="493.24"/>
      <line class="cls-1" x1="454.07" y1="498.24" x2="473.07" y2="498.24"/>
      <line class="cls-1" x1="454.07" y1="504.24" x2="473.07" y2="504.24"/>
      <line class="cls-1" x1="454.07" y1="509.24" x2="473.07" y2="509.24"/>
      <line class="cls-1" x1="454.07" y1="515.24" x2="473.07" y2="515.24"/>
      <line class="cls-1" x1="454.07" y1="488.24" x2="473.07" y2="488.24"/>
      <line class="cls-1" x1="517.07" y1="457.24" x2="536.07" y2="457.24"/>
      <line class="cls-1" x1="517.07" y1="463.24" x2="536.07" y2="463.24"/>
      <line class="cls-1" x1="517.07" y1="469.24" x2="536.07" y2="469.24"/>
      <line class="cls-1" x1="517.07" y1="473.24" x2="536.07" y2="473.24"/>
      <line class="cls-1" x1="517.07" y1="479.24" x2="536.07" y2="479.24"/>
      <line class="cls-1" x1="517.07" y1="452.24" x2="536.07" y2="452.24"/>
      <line class="cls-1" x1="454.07" y1="457.24" x2="473.07" y2="457.24"/>
      <line class="cls-1" x1="454.07" y1="463.24" x2="473.07" y2="463.24"/>
      <line class="cls-1" x1="454.07" y1="469.24" x2="473.07" y2="469.24"/>
      <line class="cls-1" x1="454.07" y1="473.24" x2="473.07" y2="473.24"/>
      <line class="cls-1" x1="454.07" y1="479.24" x2="473.07" y2="479.24"/>
      <line class="cls-1" x1="454.07" y1="452.24" x2="473.07" y2="452.24"/>
    </g>
    <g id="stair_1" data-name="stair 1">
      <line class="cls-1" x1="478.21" y1="134.74" x2="478.21" y2="171.74"/>
      <line class="cls-1" x1="463.22" y1="134.74" x2="463.22" y2="176.74"/>
      <line class="cls-1" x1="512.93" y1="134.74" x2="512.93" y2="172.74"/>
      <line class="cls-1" x1="527.92" y1="134.74" x2="527.92" y2="176.74"/>
      <line class="cls-1" x1="478.6" y1="136.24" x2="512.53" y2="136.24"/>
      <line class="cls-1" x1="478.6" y1="143.24" x2="512.53" y2="143.24"/>
      <line class="cls-1" x1="478.6" y1="148.24" x2="512.53" y2="148.24"/>
      <line class="cls-1" x1="478.6" y1="165.24" x2="512.53" y2="165.24"/>
      <line class="cls-1" x1="478.6" y1="170.24" x2="512.53" y2="170.24"/>
      <line class="cls-1" x1="478.6" y1="159.24" x2="512.53" y2="159.24"/>
      <line class="cls-1" x1="512.53" y1="157.24" x2="527.52" y2="157.24"/>
      <line class="cls-1" x1="512.53" y1="163.24" x2="527.52" y2="163.24"/>
      <line class="cls-1" x1="512.53" y1="168.24" x2="527.52" y2="168.24"/>
      <line class="cls-1" x1="463.61" y1="157.24" x2="478.6" y2="157.24"/>
      <line class="cls-1" x1="463.61" y1="163.24" x2="478.6" y2="163.24"/>
      <line class="cls-1" x1="463.61" y1="168.24" x2="478.6" y2="168.24"/>
      <line class="cls-1" x1="512.53" y1="144.24" x2="527.52" y2="144.24"/>
      <line class="cls-1" x1="512.53" y1="150.24" x2="527.52" y2="150.24"/>
      <line class="cls-1" x1="512.53" y1="139.24" x2="527.52" y2="139.24"/>
      <line class="cls-1" x1="463.61" y1="139.24" x2="478.6" y2="139.24"/>
      <line class="cls-1" x1="463.61" y1="145.24" x2="478.6" y2="145.24"/>
      <line class="cls-1" x1="463.61" y1="150.24" x2="478.6" y2="150.24"/>
    </g>
  </g>
  <g id="classes">
    <rect class="cls-7" x="315.84" y="132.07" width="82.88" height="67.08"/>
    <rect class="cls-7" x="239.56" y="132.07" width="76.28" height="67.08"/>
    <rect class="cls-7" x="180.66" y="132.07" width="58.89" height="67.08"/>
    <rect class="cls-7" x="128.92" y="132.07" width="51.74" height="67.08"/>
    <rect class="cls-7" x="276.07" y="21.05" width="122.65" height="75.69"/>
    <rect class="cls-7" x="175.22" y="46.25" width="55.28" height="50.49"/>
    <rect class="cls-7" x="118.15" y="46.25" width="57.06" height="50.49"/>
    <rect class="cls-7" x="230.49" y="46.25" width="45.57" height="50.49"/>
    <rect class="cls-7" x="768.92" y="134.74" width="70.87" height="64.62"/>
    <rect class="cls-7" x="839.79" y="134.74" width="40.62" height="64.62"/>
    <rect class="cls-7" x="725.17" y="134.74" width="43.74" height="64.62"/>
    <rect class="cls-7" x="680.75" y="134.74" width="44.43" height="64.62"/>
    <rect class="cls-7" x="588.57" y="134.74" width="92.18" height="64.62"/>
    <rect class="cls-7" x="581.77" y="21.05" width="114.32" height="87.9"/>
    <rect class="cls-7" x="696.09" y="46.25" width="36.49" height="62.7"/>
    <rect class="cls-7" x="732.58" y="46.25" width="38.72" height="62.7"/>
    <rect class="cls-7" x="771.3" y="46.25" width="59.23" height="62.7"/>
    <rect class="cls-7" x="830.48" y="46.25" width="52.16" height="62.7"/>
    <rect class="cls-7" x="831.05" y="334.61" width="37.07" height="40.56"/>
    <rect class="cls-7" x="831.05" y="375.17" width="37.07" height="16.06"/>
    <rect class="cls-7" x="723.08" y="428.99" width="28.67" height="64.39"/>
    <rect class="cls-7" x="694.42" y="428.99" width="28.67" height="64.39"/>
    <rect class="cls-7" x="807.01" y="428.99" width="55.26" height="64.39"/>
    <rect class="cls-7" x="751.75" y="428.99" width="55.26" height="64.39"/>
    <rect class="cls-7" x="581.84" y="428.99" width="56.28" height="87.66"/>
    <rect class="cls-7" x="638.13" y="428.99" width="56.28" height="87.73"/>
    <rect class="cls-7" x="588.57" y="334.01" width="36.07" height="57.22"/>
    <rect class="cls-7" x="624.64" y="334.01" width="35.07" height="57.22"/>
    <rect class="cls-7" x="659.71" y="334.01" width="29.06" height="57.22"/>
    <rect class="cls-7" x="688.77" y="334.01" width="28.06" height="57.22"/>
    <rect class="cls-7" x="716.82" y="334.01" width="57.11" height="57.22"/>
    <rect class="cls-7" x="773.94" y="334.01" width="57.11" height="57.22"/>
    <rect class="cls-7" x="924.58" y="354.18" width="58.83" height="37.4"/>
    <rect class="cls-7" x="924.58" y="317.03" width="58.83" height="37.15"/>
    <rect class="cls-7" x="924.58" y="273.25" width="58.83" height="43.79"/>
  </g>
  <g id="entrance">
    <rect class="cls-3" x="981.5" y="129.25" width="9.87" height="4.87"/>
    <rect class="cls-3" x="481.79" y="696.38" width="37.41" height="18.47"/>
    <rect class="cls-3" x="175.55" y="594.18" width="9.87" height="15.53"/>
    <rect class="cls-3" x="43.95" y="107.91" width="9.87" height="11.89"/>
    <rect class="cls-3" x="981.41" y="405.62" width="9.87" height="10.5"/>
    <rect class="cls-3" x="475.24" y="7.79" width="40.66" height="20.07"/>
  </g>
  <g id="elevator">
    <rect class="cls-12" x="369.11" y="340.31" width="29.58" height="20.39"/>
    <rect class="cls-12" x="527.92" y="135.23" width="18.03" height="18.51"/>
  </g>
</svg>