<svg version="1.1" id="Layer_1" xmlns="http://www.w3.org/2000/svg" xmlns:xlink="http://www.w3.org/1999/xlink" x="0px" y="0px"
	 viewBox="0 0 1920 1080" style="enable-background:new 0 0 1920 1080;" xml:space="preserve">
<style type="text/css">
	.st0{fill:none;stroke:#000000;stroke-miterlimit:10;}
	.st1{opacity:0.3;fill:#FFFFFF;stroke:#000000;stroke-miterlimit:10;}
	.st2{opacity:0.3;fill:#FFFF00;stroke:#000000;stroke-miterlimit:10;}
	.st3{opacity:0.3;fill:#FF7BAC;stroke:#000000;stroke-miterlimit:10;}
	.st4{opacity:0.3;fill:#3FA9F5;stroke:#000000;stroke-miterlimit:10;}
	.st5{fill:#006837;stroke:#000000;stroke-miterlimit:10;}
	.st6{opacity:0.3;fill:#BDCCD4;stroke:#000000;stroke-miterlimit:10;}
	.st7{fill:#00FF00;stroke:#000000;stroke-width:0.75;stroke-miterlimit:10;}
</style>
<path class="st0" d="M1419.16,240.27l37.92-37.92l-89.95-89.95l-48.8,45.55h-186.51v-25.2H711.79v25.2H553.84v-25.2h-65.52v178.11
	h346.13v141.13H590.8v114.26H436.23v126.09l183.15-0.07v43.69h-25.2v68.88h189.85v10.09h233.54v-60.48h58.81l1.67,78.97h25.2
	l10.09,45.36l75.15,33.08v35.83h80.55l54.33-54.33v-78.4v-75.61h-99.14v-52.09l-206.66-0.06l-0.01-58.85l112.57,0.1v-23.53h168.23
	l64.27,65.52l93.45-90.74l-36.96-36.96V240.27H1419.16z M843.62,709.92H736.24v-73.29h107.38V709.92z M981.68,461.06H881.11v-32.39
	h100.57V461.06z M981.68,326.4H881.11v-37.5h100.57V326.4z M1303.86,445.71h-279.55V311.06h279.55V445.71z"/>
<rect x="624.73" y="780.85" class="st1" width="28.5" height="24"/>
<rect x="594.18" y="780.85" class="st1" width="30.54" height="24"/>
<rect x="594.16" y="735.99" class="st1" width="25.14" height="32.34"/>
<rect x="594.16" y="768.33" class="st1" width="14.07" height="12.52"/>
<rect x="736.24" y="540.44" class="st1" width="53.69" height="95.93"/>
<rect x="590.88" y="451.93" class="st1" width="95.73" height="51.57"/>
<rect x="686.53" y="451.93" class="st1" width="60.06" height="51.57"/>
<rect x="746.58" y="451.99" class="st1" width="61.05" height="51.5"/>
<rect x="807.63" y="472.38" class="st1" width="26.82" height="31.12"/>
<rect x="881.11" y="461.06" class="st1" width="100.57" height="42.44"/>
<rect x="966.65" y="761.03" class="st1" width="50.92" height="53.91"/>
<rect x="789.93" y="540.44" class="st1" width="53.69" height="95.93"/>
<rect x="653.05" y="540.84" class="st1" width="83.19" height="77.61"/>
<rect x="881.11" y="246.95" class="st1" width="17.84" height="41.96"/>
<g id="elevator">
	<rect x="807.63" y="451.99" class="st2" width="26.82" height="20.39"/>
	<rect x="963.65" y="246.95" class="st2" width="18.03" height="18.49"/>
</g>
<g id="WC">
	<rect x="488.64" y="132.7" class="st3" width="33.1" height="50.49"/>
	<rect x="535.08" y="132.75" class="st3" width="19.12" height="38.37"/>
	<rect x="521.73" y="132.75" class="st3" width="13.34" height="38.37"/>
	<rect x="1303.18" y="345.88" class="st3" width="35.01" height="17.87"/>
	<rect x="1303.86" y="303.75" class="st3" width="20.67" height="42.13"/>
	<rect x="963.65" y="265.44" class="st3" width="18.03" height="23.47"/>
</g>
<rect x="488.32" y="183.19" class="st1" width="33.1" height="12.62"/>
<rect x="488.31" y="195.82" class="st1" width="33.1" height="12.12"/>
<rect x="532.91" y="277.32" class="st1" width="31.75" height="33.54"/>
<rect x="488.32" y="243.78" class="st1" width="33.1" height="33.54"/>
<rect x="488.32" y="277.32" class="st1" width="44.59" height="33.54"/>
<rect x="1303.86" y="421.96" class="st1" width="22.6" height="14.98"/>
<rect x="1303.86" y="404.6" class="st1" width="34.33" height="17.36"/>
<rect x="1303.52" y="382.48" class="st1" width="34.67" height="22.13"/>
<rect x="1303.52" y="363.75" class="st1" width="34.67" height="18.72"/>
<rect x="1303.86" y="243.78" class="st1" width="20.67" height="59.97"/>
<rect x="1284.18" y="243.78" class="st1" width="19.67" height="67.28"/>
<rect x="834.45" y="132.75" class="st1" width="183.05" height="67.28"/>
<rect x="1324.53" y="303.75" class="st1" width="13.66" height="27.96"/>
<polygon class="st1" points="1303.86,436.94 1303.86,445.71 1323.43,445.71 1323.43,456.06 1338.18,456.06 1338.18,436.94 "/>
<rect x="1295.98" y="481.99" class="st1" width="26.45" height="18.78"/>
<g id="Profs">
	<rect x="788.27" y="709.93" class="st4" width="30" height="37.33"/>
	<rect x="818.27" y="709.92" class="st4" width="25.28" height="37.35"/>
	<rect x="756.65" y="709.94" class="st4" width="31.62" height="37.33"/>
	<rect x="736.24" y="709.93" class="st4" width="20.42" height="37.33"/>
	<rect x="818.27" y="769.18" class="st4" width="25.28" height="45.77"/>
	<rect x="784.04" y="769.18" class="st4" width="34.23" height="45.77"/>
	<rect x="751.06" y="769.18" class="st4" width="32.98" height="35.68"/>
	<rect x="716.33" y="769.18" class="st4" width="34.72" height="35.68"/>
	<rect x="680.84" y="769.18" class="st4" width="35.49" height="35.68"/>
	<rect x="653.14" y="769.18" class="st4" width="27.7" height="35.68"/>
	<rect x="881.11" y="326.4" class="st4" width="20.11" height="36.59"/>
	<rect x="901.23" y="326.4" class="st4" width="20.11" height="36.59"/>
	<rect x="921.34" y="326.4" class="st4" width="20.11" height="36.59"/>
	<rect x="941.45" y="326.4" class="st4" width="20.11" height="36.59"/>
	<rect x="961.57" y="326.4" class="st4" width="20.11" height="36.59"/>
	<rect x="881.11" y="392.09" class="st4" width="20.11" height="36.59"/>
	<rect x="901.23" y="392.09" class="st4" width="20.11" height="36.59"/>
	<rect x="921.34" y="392.09" class="st4" width="20.11" height="36.59"/>
	<rect x="941.45" y="392.09" class="st4" width="20.11" height="36.59"/>
	<rect x="961.57" y="392.09" class="st4" width="20.11" height="36.59"/>
	<rect x="936.87" y="773.01" class="st4" width="29.78" height="41.93"/>
	<rect x="907.13" y="773.01" class="st4" width="29.74" height="41.93"/>
	<rect x="875.34" y="769.18" class="st4" width="31.79" height="45.77"/>
	<rect x="843.55" y="769.18" class="st4" width="31.79" height="45.77"/>
	<rect x="843.55" y="687.2" class="st4" width="50.42" height="60.06"/>
	<rect x="593.15" y="649.94" class="st4" width="26.15" height="42.35"/>
	<rect x="567" y="649.94" class="st4" width="26.15" height="42.35"/>
	<rect x="540.84" y="649.94" class="st4" width="26.15" height="42.35"/>
	<rect x="514.69" y="649.94" class="st4" width="26.15" height="42.35"/>
	<rect x="488.54" y="649.94" class="st4" width="26.15" height="42.35"/>
	<rect x="462.39" y="649.94" class="st4" width="26.15" height="42.35"/>
	<rect x="436.23" y="649.94" class="st4" width="26.15" height="42.35"/>
	<rect x="593.15" y="566.25" class="st4" width="26.15" height="42.35"/>
	<rect x="567" y="566.25" class="st4" width="26.15" height="42.35"/>
	<rect x="540.84" y="566.25" class="st4" width="26.15" height="42.35"/>
	<rect x="514.69" y="566.25" class="st4" width="26.15" height="42.35"/>
	<rect x="488.54" y="566.25" class="st4" width="26.15" height="42.35"/>
	<rect x="462.39" y="566.25" class="st4" width="26.15" height="42.35"/>
	<rect x="436.23" y="566.25" class="st4" width="26.15" height="42.35"/>
	<rect x="653.14" y="646.65" class="st4" width="83.19" height="25.79"/>
	<rect x="653.05" y="618.45" class="st4" width="83.19" height="28.19"/>
</g>
<rect x="436.23" y="608.6" class="st1" width="10.89" height="41.33"/>
<g id="trees">
	<rect x="736.33" y="636.62" class="st5" width="107.28" height="73.31"/>
	<rect x="881.11" y="428.67" class="st5" width="100.57" height="32.39"/>
	<rect x="881.11" y="288.91" class="st5" width="100.57" height="37.5"/>
	<rect x="1024.31" y="311.06" class="st5" width="279.55" height="134.66"/>
</g>
<g id="stairs_00000140695758111175546690000016750114081432844464_">
	<g id="stair_6">
		<line class="st0" x1="659.8" y1="741.94" x2="731.8" y2="741.94"/>
		<line class="st0" x1="731.3" y1="678.44" x2="731.3" y2="742.44"/>
		<line class="st0" x1="659.8" y1="677.94" x2="731.8" y2="677.94"/>
		<line class="st0" x1="671.8" y1="728.94" x2="717.8" y2="728.94"/>
		<line class="st0" x1="717.3" y1="691.44" x2="717.3" y2="728.44"/>
		<line class="st0" x1="671.8" y1="690.94" x2="717.8" y2="690.94"/>
		<line class="st0" x1="672.3" y1="728.44" x2="672.3" y2="742.44"/>
		<line class="st0" x1="679.3" y1="728.44" x2="679.3" y2="742.44"/>
		<line class="st0" x1="687.3" y1="728.44" x2="687.3" y2="742.44"/>
		<line class="st0" x1="694.3" y1="728.44" x2="694.3" y2="742.44"/>
		<line class="st0" x1="702.3" y1="728.44" x2="702.3" y2="742.44"/>
		<line class="st0" x1="709.3" y1="728.44" x2="709.3" y2="742.44"/>
		<line class="st0" x1="717.3" y1="728.44" x2="717.3" y2="742.44"/>
		<line class="st0" x1="716.8" y1="741.94" x2="731.8" y2="741.94"/>
		<line class="st0" x1="716.8" y1="731.94" x2="731.8" y2="731.94"/>
		<line class="st0" x1="716.8" y1="720.94" x2="731.8" y2="720.94"/>
		<line class="st0" x1="716.8" y1="709.94" x2="731.8" y2="709.94"/>
		<line class="st0" x1="716.8" y1="699.94" x2="731.8" y2="699.94"/>
		<line class="st0" x1="716.8" y1="690.94" x2="731.8" y2="690.94"/>
		<line class="st0" x1="716.8" y1="677.94" x2="731.8" y2="677.94"/>
		<line class="st0" x1="731.3" y1="691.44" x2="731.3" y2="678.44"/>
		<line class="st0" x1="721.3" y1="691.44" x2="721.3" y2="678.44"/>
		<line class="st0" x1="712.3" y1="691.44" x2="712.3" y2="678.44"/>
		<line class="st0" x1="702.3" y1="691.44" x2="702.3" y2="678.44"/>
		<line class="st0" x1="692.3" y1="691.44" x2="692.3" y2="678.44"/>
		<line class="st0" x1="682.3" y1="691.44" x2="682.3" y2="678.44"/>
		<line class="st0" x1="672.3" y1="691.44" x2="672.3" y2="678.44"/>
	</g>
	<g id="stair_5">
		<line class="st0" x1="1359.8" y1="542.69" x2="1419.61" y2="542.69"/>
		<line class="st0" x1="1419.11" y1="502.94" x2="1419.11" y2="542.2"/>
		<line class="st0" x1="1359.8" y1="503.43" x2="1419.61" y2="503.43"/>
		<line class="st0" x1="1369.77" y1="533.86" x2="1406.65" y2="533.86"/>
		<line class="st0" x1="1407.15" y1="511.77" x2="1407.15" y2="534.35"/>
		<line class="st0" x1="1369.77" y1="511.28" x2="1406.65" y2="511.28"/>
		<line class="st0" x1="1369.27" y1="533.37" x2="1369.27" y2="542.2"/>
		<line class="st0" x1="1376.25" y1="533.37" x2="1376.25" y2="542.2"/>
		<line class="st0" x1="1382.23" y1="533.37" x2="1382.23" y2="542.2"/>
		<line class="st0" x1="1388.21" y1="533.37" x2="1388.21" y2="542.2"/>
		<line class="st0" x1="1394.19" y1="533.37" x2="1394.19" y2="542.2"/>
		<line class="st0" x1="1401.17" y1="533.37" x2="1401.17" y2="542.2"/>
		<line class="st0" x1="1407.15" y1="533.37" x2="1407.15" y2="542.2"/>
		<line class="st0" x1="1406.65" y1="542.69" x2="1418.61" y2="542.69"/>
		<line class="st0" x1="1406.65" y1="511.28" x2="1418.61" y2="511.28"/>
		<line class="st0" x1="1406.65" y1="503.43" x2="1418.61" y2="503.43"/>
		<line class="st0" x1="1419.11" y1="511.77" x2="1419.11" y2="502.94"/>
		<line class="st0" x1="1411.14" y1="511.77" x2="1411.14" y2="502.94"/>
		<line class="st0" x1="1402.17" y1="511.77" x2="1402.17" y2="502.94"/>
		<line class="st0" x1="1394.19" y1="511.77" x2="1394.19" y2="502.94"/>
		<line class="st0" x1="1386.22" y1="511.77" x2="1386.22" y2="502.94"/>
		<line class="st0" x1="1378.24" y1="511.77" x2="1378.24" y2="502.94"/>
		<line class="st0" x1="1370.27" y1="511.77" x2="1370.27" y2="502.94"/>
	</g>
	<g id="stair_4">
		<line class="st0" x1="1372.63" y1="245.71" x2="1419.59" y2="245.71"/>
		<line class="st0" x1="1419.1" y1="208.44" x2="1419.1" y2="246.44"/>
		<line class="st0" x1="1372.63" y1="209.17" x2="1419.59" y2="209.17"/>
		<line class="st0" x1="1380.46" y1="238.4" x2="1408.83" y2="238.4"/>
		<line class="st0" x1="1409.32" y1="217.21" x2="1409.32" y2="237.67"/>
		<line class="st0" x1="1380.46" y1="216.48" x2="1408.83" y2="216.48"/>
		<line class="st0" x1="1379.97" y1="237.67" x2="1379.97" y2="246.44"/>
		<line class="st0" x1="1385.84" y1="237.67" x2="1385.84" y2="246.44"/>
		<line class="st0" x1="1390.73" y1="237.67" x2="1390.73" y2="246.44"/>
		<line class="st0" x1="1394.64" y1="237.67" x2="1394.64" y2="246.44"/>
		<line class="st0" x1="1399.53" y1="237.67" x2="1399.53" y2="246.44"/>
		<line class="st0" x1="1405.4" y1="237.67" x2="1405.4" y2="246.44"/>
		<line class="st0" x1="1409.32" y1="237.67" x2="1409.32" y2="246.44"/>
		<line class="st0" x1="1408.83" y1="245.71" x2="1418.61" y2="245.71"/>
		<line class="st0" x1="1408.83" y1="216.48" x2="1418.61" y2="216.48"/>
		<line class="st0" x1="1408.83" y1="209.17" x2="1418.61" y2="209.17"/>
		<line class="st0" x1="1419.1" y1="217.21" x2="1419.1" y2="208.44"/>
		<line class="st0" x1="1412.25" y1="217.21" x2="1412.25" y2="208.44"/>
		<line class="st0" x1="1405.4" y1="217.21" x2="1405.4" y2="208.44"/>
		<line class="st0" x1="1399.53" y1="217.21" x2="1399.53" y2="208.44"/>
		<line class="st0" x1="1393.67" y1="217.21" x2="1393.67" y2="208.44"/>
		<line class="st0" x1="1386.82" y1="217.21" x2="1386.82" y2="208.44"/>
		<line class="st0" x1="1380.95" y1="217.21" x2="1380.95" y2="208.44"/>
	</g>
	<g id="stair_3">
		<line class="st0" x1="521.42" y1="208.45" x2="488.3" y2="208.45"/>
		<line class="st0" x1="488.58" y1="244.22" x2="488.58" y2="207.93"/>
		<line class="st0" x1="521.42" y1="243.7" x2="488.3" y2="243.7"/>
		<line class="st0" x1="515.9" y1="215.71" x2="495.48" y2="215.71"/>
		<line class="st0" x1="495.2" y1="235.93" x2="495.2" y2="215.19"/>
		<line class="st0" x1="515.9" y1="236.45" x2="495.48" y2="236.45"/>
		<line class="st0" x1="516.18" y1="216.23" x2="516.18" y2="207.93"/>
		<line class="st0" x1="512.31" y1="216.23" x2="512.31" y2="207.93"/>
		<line class="st0" x1="509" y1="216.23" x2="509" y2="207.93"/>
		<line class="st0" x1="505.69" y1="216.23" x2="505.69" y2="207.93"/>
		<line class="st0" x1="502.38" y1="216.23" x2="502.38" y2="207.93"/>
		<line class="st0" x1="498.51" y1="216.23" x2="498.51" y2="207.93"/>
		<line class="st0" x1="495.2" y1="216.23" x2="495.2" y2="207.93"/>
		<line class="st0" x1="495.48" y1="208.45" x2="488.85" y2="208.45"/>
		<line class="st0" x1="495.48" y1="236.45" x2="488.85" y2="236.45"/>
		<line class="st0" x1="495.48" y1="243.7" x2="488.85" y2="243.7"/>
		<line class="st0" x1="488.58" y1="235.93" x2="488.58" y2="244.22"/>
		<line class="st0" x1="492.99" y1="235.93" x2="492.99" y2="244.22"/>
		<line class="st0" x1="497.96" y1="235.93" x2="497.96" y2="244.22"/>
		<line class="st0" x1="502.38" y1="235.93" x2="502.38" y2="244.22"/>
		<line class="st0" x1="506.79" y1="235.93" x2="506.79" y2="244.22"/>
		<line class="st0" x1="511.21" y1="235.93" x2="511.21" y2="244.22"/>
		<line class="st0" x1="515.62" y1="235.93" x2="515.62" y2="244.22"/>
	</g>
	<g id="stair_2">
		<line class="st0" x1="908.3" y1="552.44" x2="908.3" y2="636.44"/>
		<line class="st0" x1="889.3" y1="552.44" x2="889.3" y2="636.44"/>
		<line class="st0" x1="952.3" y1="552.44" x2="952.3" y2="636.44"/>
		<line class="st0" x1="971.3" y1="552.44" x2="971.3" y2="636.44"/>
		<line class="st0" x1="908.8" y1="557.94" x2="951.8" y2="557.94"/>
		<line class="st0" x1="908.8" y1="563.94" x2="951.8" y2="563.94"/>
		<line class="st0" x1="908.8" y1="570.94" x2="951.8" y2="570.94"/>
		<line class="st0" x1="908.8" y1="575.94" x2="951.8" y2="575.94"/>
		<line class="st0" x1="908.8" y1="581.94" x2="951.8" y2="581.94"/>
		<line class="st0" x1="908.8" y1="587.94" x2="951.8" y2="587.94"/>
		<line class="st0" x1="908.8" y1="608.94" x2="951.8" y2="608.94"/>
		<line class="st0" x1="908.8" y1="614.94" x2="951.8" y2="614.94"/>
		<line class="st0" x1="908.8" y1="619.94" x2="951.8" y2="619.94"/>
		<line class="st0" x1="908.8" y1="624.94" x2="951.8" y2="624.94"/>
		<line class="st0" x1="908.8" y1="630.94" x2="951.8" y2="630.94"/>
		<line class="st0" x1="908.8" y1="603.94" x2="951.8" y2="603.94"/>
		<line class="st0" x1="952.8" y1="604.94" x2="971.8" y2="604.94"/>
		<line class="st0" x1="952.8" y1="609.94" x2="971.8" y2="609.94"/>
		<line class="st0" x1="952.8" y1="615.94" x2="971.8" y2="615.94"/>
		<line class="st0" x1="952.8" y1="620.94" x2="971.8" y2="620.94"/>
		<line class="st0" x1="952.8" y1="626.94" x2="971.8" y2="626.94"/>
		<line class="st0" x1="952.8" y1="599.94" x2="971.8" y2="599.94"/>
		<line class="st0" x1="889.8" y1="604.94" x2="908.8" y2="604.94"/>
		<line class="st0" x1="889.8" y1="609.94" x2="908.8" y2="609.94"/>
		<line class="st0" x1="889.8" y1="615.94" x2="908.8" y2="615.94"/>
		<line class="st0" x1="889.8" y1="620.94" x2="908.8" y2="620.94"/>
		<line class="st0" x1="889.8" y1="626.94" x2="908.8" y2="626.94"/>
		<line class="st0" x1="889.8" y1="599.94" x2="908.8" y2="599.94"/>
		<line class="st0" x1="952.8" y1="568.94" x2="971.8" y2="568.94"/>
		<line class="st0" x1="952.8" y1="574.94" x2="971.8" y2="574.94"/>
		<line class="st0" x1="952.8" y1="580.94" x2="971.8" y2="580.94"/>
		<line class="st0" x1="952.8" y1="584.94" x2="971.8" y2="584.94"/>
		<line class="st0" x1="952.8" y1="590.94" x2="971.8" y2="590.94"/>
		<line class="st0" x1="952.8" y1="563.94" x2="971.8" y2="563.94"/>
		<line class="st0" x1="889.8" y1="568.94" x2="908.8" y2="568.94"/>
		<line class="st0" x1="889.8" y1="574.94" x2="908.8" y2="574.94"/>
		<line class="st0" x1="889.8" y1="580.94" x2="908.8" y2="580.94"/>
		<line class="st0" x1="889.8" y1="584.94" x2="908.8" y2="584.94"/>
		<line class="st0" x1="889.8" y1="590.94" x2="908.8" y2="590.94"/>
		<line class="st0" x1="889.8" y1="563.94" x2="908.8" y2="563.94"/>
	</g>
	<g id="stair_1">
		<line class="st0" x1="913.94" y1="246.44" x2="913.94" y2="283.44"/>
		<line class="st0" x1="898.95" y1="246.44" x2="898.95" y2="288.44"/>
		<line class="st0" x1="948.66" y1="246.44" x2="948.66" y2="284.44"/>
		<line class="st0" x1="963.65" y1="246.44" x2="963.65" y2="288.44"/>
		<line class="st0" x1="913.94" y1="247.94" x2="948.66" y2="247.94"/>
		<line class="st0" x1="913.94" y1="254.94" x2="948.66" y2="254.94"/>
		<line class="st0" x1="913.94" y1="259.94" x2="948.66" y2="259.94"/>
		<line class="st0" x1="913.94" y1="276.94" x2="948.66" y2="276.94"/>
		<line class="st0" x1="913.94" y1="281.94" x2="948.66" y2="281.94"/>
		<line class="st0" x1="913.94" y1="270.94" x2="948.66" y2="270.94"/>
		<line class="st0" x1="948.66" y1="268.94" x2="963.65" y2="268.94"/>
		<line class="st0" x1="948.66" y1="274.94" x2="963.65" y2="274.94"/>
		<line class="st0" x1="948.66" y1="279.94" x2="963.65" y2="279.94"/>
		<line class="st0" x1="898.95" y1="268.94" x2="913.94" y2="268.94"/>
		<line class="st0" x1="898.95" y1="274.94" x2="913.94" y2="274.94"/>
		<line class="st0" x1="898.95" y1="279.94" x2="913.94" y2="279.94"/>
		<line class="st0" x1="948.66" y1="255.94" x2="963.65" y2="255.94"/>
		<line class="st0" x1="948.66" y1="261.94" x2="963.65" y2="261.94"/>
		<line class="st0" x1="948.66" y1="250.94" x2="963.65" y2="250.94"/>
		<line class="st0" x1="898.95" y1="250.94" x2="913.94" y2="250.94"/>
		<line class="st0" x1="898.95" y1="256.94" x2="913.94" y2="256.94"/>
		<line class="st0" x1="898.95" y1="261.94" x2="913.94" y2="261.94"/>
	</g>
</g>
<g id="classes">
	<rect x="751.57" y="243.78" class="st6" width="82.88" height="67.08"/>
	<rect x="675.29" y="243.78" class="st6" width="76.28" height="67.08"/>
	<rect x="616.4" y="243.78" class="st6" width="58.89" height="67.08"/>
	<rect x="564.65" y="243.78" class="st6" width="51.74" height="67.08"/>
	<rect x="553.88" y="157.95" class="st6" width="86.56" height="50.49"/>
	<rect x="640.44" y="157.95" class="st6" width="71.37" height="50.49"/>
	<rect x="1017.5" y="132.75" class="st6" width="114.32" height="75.69"/>
	<rect x="1131.82" y="158.01" class="st6" width="30.09" height="50.43"/>
	<rect x="1161.91" y="158.01" class="st6" width="31.93" height="50.43"/>
	<rect x="1193.84" y="158.01" class="st6" width="124.49" height="50.43"/>
	<rect x="1244.68" y="243.78" class="st6" width="39.51" height="67.28"/>
	<rect x="1202.49" y="243.78" class="st6" width="42.19" height="67.28"/>
	<rect x="1165.84" y="243.78" class="st6" width="36.65" height="67.28"/>
	<rect x="1128.63" y="243.78" class="st6" width="37.22" height="67.28"/>
	<rect x="1024.31" y="243.78" class="st6" width="104.32" height="67.28"/>
	<rect x="1073.87" y="540.69" class="st6" width="56.28" height="87.73"/>
	<rect x="1158.82" y="540.69" class="st6" width="28.67" height="64.39"/>
	<rect x="1130.15" y="540.69" class="st6" width="28.67" height="64.39"/>
	<rect x="1242.75" y="540.69" class="st6" width="55.26" height="64.39"/>
	<rect x="1187.48" y="540.69" class="st6" width="55.26" height="64.39"/>
	<rect x="1017.58" y="540.69" class="st6" width="56.28" height="87.66"/>
	<rect x="1024.31" y="445.71" class="st6" width="88.86" height="55.06"/>
	<rect x="1126.01" y="445.71" class="st6" width="84.17" height="55.06"/>
	<rect x="1210.18" y="445.71" class="st6" width="85.79" height="55.06"/>
	<rect x="1113.12" y="445.71" class="st6" width="12.89" height="55.06"/>
	<rect x="1360.31" y="418.22" class="st6" width="58.83" height="85.21"/>
	<rect x="1360.31" y="385.18" class="st6" width="58.83" height="33.04"/>
	<rect x="1360.31" y="315.58" class="st6" width="58.83" height="69.6"/>
	<rect x="1360.31" y="245.93" class="st6" width="58.83" height="69.64"/>
</g>
<g id="confrance">
	<rect x="966.65" y="687.2" class="st1" width="50.92" height="73.83"/>
	<rect x="711.8" y="132.75" class="st1" width="122.65" height="75.69"/>
</g>
<g id="entrance">
	<rect x="1318.2" y="199.75" class="st7" width="20.66" height="8.81"/>
	<rect x="1297.87" y="540.55" class="st7" width="21.57" height="9.74"/>
</g>
<rect x="1295.98" y="445.71" class="st1" width="27.46" height="20.17"/>
<path class="st0" d="M971.29,635.89c-2.34,5.95-17.84,15.74-17.87,26.52c-0.08,26.38,9.03,43.62,13.24,48.31"/>
<path class="st0" d="M889.3,635.89c2.34,5.95,17.84,15.74,17.87,26.52c0.08,26.38-9.03,43.62-13.24,48.31"/>
</svg>
